<svg width="28" height="39" viewBox="0 0 28 39" fill="none" xmlns="http://www.w3.org/2000/svg">
<path d="M0.12 34.52C0.2 34.36 0.28 34.22 0.36 34.1C0.44 33.94 0.52 33.78 0.6 33.62C1.04 32.9 1.32 32.22 1.44 31.58C1.56 30.94 1.78 30.6 2.1 30.56C2.46 30.52 2.76 30.4 3 30.2C3.28 30 3.46 29.78 3.54 29.54C3.66 29.26 3.66 29 3.54 28.76C3.46 28.48 3.22 28.26 2.82 28.1L7.92 21.74C8.32 21.94 8.68 21.82 9 21.38C9.36 20.9 9.64 20.34 9.84 19.7C10.08 19.02 10.24 18.38 10.32 17.78C10.44 17.14 10.48 16.76 10.44 16.64C10.68 16.32 11.02 15.92 11.46 15.44C11.9 14.92 12.4 14.02 12.96 12.74C13.56 11.46 14 10.46 14.28 9.74C14.6 9.02 14.8 8.58 14.88 8.42C15.04 8.06 15.18 7.78 15.3 7.58C15.42 7.38 15.5 7.26 15.54 7.22L14.64 6.02C14.2 6.06 13.88 6.22 13.68 6.5C13.48 6.78 13.1 6.96 12.54 7.04C12.26 7.08 12.02 7.12 11.82 7.16C11.62 7.16 11.44 7.16 11.28 7.16C11.16 7.2 11.02 7.22 10.86 7.22C10.58 7.22 10.04 7.02 9.24 6.62C8.48 6.22 7.64 5.9 6.72 5.66C6.76 5.74 6.72 5.82 6.6 5.9C6.52 5.98 6.42 6.06 6.3 6.14C6.22 6.22 6.14 6.3 6.06 6.38C5.98 6.46 5.98 6.56 6.06 6.68C5.9 6.68 5.76 6.66 5.64 6.62C5.48 6.58 5.3 6.54 5.1 6.5C4.9 6.46 4.66 6.4 4.38 6.32C3.82 6.12 3.36 6 3 5.96C2.68 5.88 2.48 5.84 2.4 5.84C2.2 5.84 2.06 5.74 1.98 5.54C1.98 5.5 1.96 5.36 1.92 5.12C1.88 4.84 1.82 4.52 1.74 4.16C1.7 3.8 1.62 3.44 1.5 3.08C1.42 2.72 1.32 2.44 1.2 2.24L2.04 0.679997C2.72 0.679997 3.48 0.699998 4.32 0.74C5.16 0.779999 6.1 0.839998 7.14 0.919997C8.74 1.04 10.08 1.14 11.16 1.22C12.24 1.3 13.12 1.32 13.8 1.28C13.56 2.44 14.12 2.7 15.48 2.06C15.84 1.9 16.22 1.78 16.62 1.7C17.06 1.58 17.48 1.5 17.88 1.46C18.32 1.42 18.7 1.4 19.02 1.4C19.38 1.4 19.64 1.42 19.8 1.46C20.28 1.82 21.14 2.02 22.38 2.06C23.02 2.1 23.58 2.18 24.06 2.3C24.58 2.42 25.06 2.64 25.5 2.96C25.42 3.2 25.36 3.5 25.32 3.86C25.28 4.22 25.24 4.56 25.2 4.88C25.2 5.2 25.2 5.48 25.2 5.72C25.2 5.96 25.2 6.1 25.2 6.14C25.36 6.38 25.62 6.6 25.98 6.8L25.86 7.04L25.74 6.98C25.74 7.66 25.74 8.08 25.74 8.24C25.78 8.4 25.62 8.48 25.26 8.48L25.2 8.6L21.96 14.78C20.32 17.38 19 19.48 18 21.08C17.04 22.68 16.28 23.98 15.72 24.98C15.16 25.94 14.74 26.72 14.46 27.32C14.18 27.88 13.9 28.44 13.62 29C13.38 29.52 13.08 29.94 12.72 30.26C12.4 30.58 12.08 30.84 11.76 31.04C11.48 31.2 11.22 31.32 10.98 31.4C10.78 31.48 10.68 31.54 10.68 31.58C10.12 31.82 9.8 32.12 9.72 32.48C9.68 32.8 9.78 33.1 10.02 33.38C10.26 33.62 10.62 33.8 11.1 33.92C11.62 34 12.18 33.92 12.78 33.68C13.02 33.68 13.22 33.64 13.38 33.56C13.54 33.48 13.7 33.38 13.86 33.26C14.02 33.14 14.2 33.02 14.4 32.9C14.64 32.74 14.96 32.6 15.36 32.48C16.2 32.28 16.72 32.24 16.92 32.36C17.12 32.44 17.38 32.5 17.7 32.54C18.02 32.54 18.46 32.52 19.02 32.48C20.46 32.44 21.24 32.44 21.36 32.48C21.44 32.56 21.56 32.76 21.72 33.08C22.16 33.04 22.66 32.96 23.22 32.84C23.82 32.68 24.5 32.5 25.26 32.3C25.46 32.22 25.64 32.16 25.8 32.12C25.96 32.08 26.12 32.04 26.28 32L27.84 33.8L27.9 35.18L26.94 36.14C26.26 36.22 25.66 36.4 25.14 36.68C24.26 37.04 23.52 37.06 22.92 36.74C22.44 36.62 22.02 36.54 21.66 36.5C21.34 36.46 21.08 36.48 20.88 36.56C20.76 36.56 20.46 36.58 19.98 36.62C19.54 36.62 19.04 36.62 18.48 36.62C17.92 36.62 17.36 36.64 16.8 36.68C16.28 36.68 15.88 36.68 15.6 36.68C15.24 36.76 15.02 36.78 14.94 36.74C14.86 36.7 14.78 36.64 14.7 36.56C14.66 36.48 14.56 36.4 14.4 36.32C14.24 36.2 13.92 36.1 13.44 36.02C12.92 35.94 12.26 35.96 11.46 36.08C10.7 36.16 9.9 36.3 9.06 36.5C8.22 36.7 7.38 36.96 6.54 37.28C5.74 37.6 5.08 37.94 4.56 38.3L3.96 38.06C3.52 38.02 3.28 38.08 3.24 38.24C3.12 38.24 3.02 38.26 2.94 38.3C2.9 38.3 2.84 38.3 2.76 38.3H2.58C2.1 38.06 1.82 37.9 1.74 37.82C1.66 37.74 1.64 37.68 1.68 37.64L0.66 37.52L0.12 34.52Z" fill="url(#paint0_linear_1_2)"/>
<defs>
<linearGradient id="paint0_linear_1_2" x1="-3" y1="23" x2="32" y2="23" gradientUnits="userSpaceOnUse">
<stop stop-color="#FA709A"/>
<stop offset="1" stop-color="#FEE140"/>
</linearGradient>
</defs>
</svg>
