<svg width="172" height="44" viewBox="0 0 172 44" fill="none" xmlns="http://www.w3.org/2000/svg">
<path d="M0.5 44V35.6L16.58 8.6H0.98V0.199999H26.84V8.6L10.7 35.6H27.5V44H0.5ZM36.1766 44V0.199999H64.3766V8.6H45.0566V18.32H62.8166V26.72H45.1766V44H36.1766ZM72.7531 44V36.2H81.4531V8H72.7531V0.199999H99.1531V8H90.4531V36.2H99.1531V44H72.7531ZM109.63 44V0.199999H118.63V35.6H136.33V44H109.63ZM144.706 44V0.199999H171.706V7.88H153.526V17.72H169.606V25.4H153.526V36.32H171.706V44H144.706Z" fill="url(#paint0_linear_1_2)"/>
<defs>
<linearGradient id="paint0_linear_1_2" x1="-4" y1="22.5" x2="176" y2="22.5" gradientUnits="userSpaceOnUse">
<stop stop-color="#FA709A"/>
<stop offset="1" stop-color="#FEE140"/>
</linearGradient>
</defs>
</svg>
