<?xml version="1.0" standalone="no"?><!DOCTYPE svg PUBLIC "-//W3C//DTD SVG 1.1//EN" "http://www.w3.org/Graphics/SVG/1.1/DTD/svg11.dtd"><svg t="1715094439365" class="icon" viewBox="0 0 1024 1024" version="1.1" xmlns="http://www.w3.org/2000/svg" p-id="7365" xmlns:xlink="http://www.w3.org/1999/xlink" width="64" height="64"><path d="M512 42.666667a469.333333 469.333333 0 1 0 469.333333 469.333333A469.333333 469.333333 0 0 0 512 42.666667z m0 864a394.666667 394.666667 0 1 1 394.666667-394.666667 395.146667 395.146667 0 0 1-394.666667 394.666667z" p-id="7366" fill="#ffffff"></path><path d="M427.2 332.106667a37.333333 37.333333 0 0 0-37.333333 37.333333v285.12a37.333333 37.333333 0 0 0 74.666666 0V369.44a37.333333 37.333333 0 0 0-37.333333-37.333333zM596.8 332.106667a37.333333 37.333333 0 0 0-37.333333 37.333333v285.12a37.333333 37.333333 0 1 0 74.666666 0V369.44a37.333333 37.333333 0 0 0-37.333333-37.333333z" p-id="7367" fill="#ffffff"></path></svg>