<?xml version="1.0" standalone="no"?><!DOCTYPE svg PUBLIC "-//W3C//DTD SVG 1.1//EN" "http://www.w3.org/Graphics/SVG/1.1/DTD/svg11.dtd"><svg t="1715094403873" class="icon" viewBox="0 0 1024 1024" version="1.1" xmlns="http://www.w3.org/2000/svg" p-id="6335" xmlns:xlink="http://www.w3.org/1999/xlink" width="64" height="64"><path d="M506.046512 11.906977C233.376744 11.906977 11.906977 233.376744 11.906977 506.046512S233.376744 1000.186047 506.046512 1000.186047 1000.186047 778.716279 1000.186047 506.046512 778.716279 11.906977 506.046512 11.906977z m0 928.744186C266.716279 940.651163 71.44186 745.376744 71.44186 506.046512S266.716279 71.44186 506.046512 71.44186 940.651163 266.716279 940.651163 506.046512 745.376744 940.651163 506.046512 940.651163z" fill="#ffffff" p-id="6336"></path><path d="M776.334884 485.804651L402.455814 270.288372c-9.525581-4.762791-20.24186-4.762791-29.767442 0S357.209302 285.767442 357.209302 296.483721v432.223256c0 10.716279 5.953488 20.24186 14.288372 26.195349 4.762791 2.381395 9.525581 3.572093 14.288373 3.572093s10.716279-1.190698 14.288372-3.572093L773.953488 539.386047c9.525581-4.762791 14.288372-15.47907 14.288372-26.195349s-2.381395-21.432558-11.906976-27.386047zM416.744186 676.316279V347.683721L702.511628 512 416.744186 676.316279z" fill="#ffffff" p-id="6337"></path></svg>